<svg width="224" height="272" viewBox="0 0 224 272" fill="none" xmlns="http://www.w3.org/2000/svg">
<path d="M223.469 185.91L222.069 186.91C220.889 187.77 219.706 188.627 218.519 189.48C217.659 190.1 216.779 190.71 215.909 191.33L212.529 193.7C211.263 194.58 209.983 195.45 208.689 196.31C207.689 197 206.689 197.68 205.689 198.36C204.689 199.04 203.789 199.61 202.839 200.23L199.069 202.69L196.969 204.02C195.536 204.927 194.096 205.827 192.649 206.72L190.649 207.96C188.649 209.167 186.649 210.367 184.649 211.56L184.379 211.72C182.293 212.96 180.189 214.183 178.069 215.39L175.989 216.57C174.496 217.41 173.003 218.247 171.509 219.08L169.199 220.35L164.909 222.66C164.059 223.11 163.209 223.57 162.349 224.01C160.839 224.81 159.349 225.59 157.789 226.37L155.549 227.52C153.769 228.407 151.986 229.287 150.199 230.16L148.609 230.95C146.279 232.08 143.949 233.18 141.609 234.27L139.689 235.14C137.969 235.92 136.249 236.71 134.529 237.47C133.529 237.9 132.599 238.31 131.629 238.72C130.209 239.34 128.789 239.96 127.369 240.56L124.169 241.91L120.169 243.53L116.169 245.06L112.739 246.38C111.139 246.98 109.559 247.55 107.969 248.12L105.209 249.12C102.659 250.01 100.129 250.87 97.5994 251.69L97.2094 251.82C94.2694 252.82 91.3694 253.66 88.5394 254.49L88.3494 254.55C86.7294 255.02 85.1394 255.47 83.5594 255.9L82.1794 256.26C81.0794 256.56 79.9694 256.85 78.8894 257.12L77.6294 257.43C76.1894 257.79 74.7594 258.13 73.3494 258.43L71.8694 258.77C70.1594 259.15 68.4594 259.51 66.7994 259.84H66.6994C64.8261 260.207 62.986 260.54 61.1794 260.84L59.9394 261.04C58.1694 261.33 56.4294 261.59 54.7294 261.81L54.0794 261.88C52.5394 262.08 51.0294 262.24 49.5394 262.38L48.5394 262.48C46.9394 262.62 45.3694 262.73 43.8394 262.81H42.9494C41.5894 262.87 40.2594 262.9 38.9494 262.91H38.1894C36.7494 262.91 35.3494 262.88 33.9894 262.82L33.0694 262.77C31.7894 262.7 30.5294 262.6 29.3194 262.48H28.9994C27.7094 262.34 26.4794 262.16 25.2694 261.96L24.4394 261.82C23.2494 261.6 22.0894 261.37 20.9794 261.1L20.7394 261.03C19.7394 260.77 18.7394 260.47 17.7394 260.16L17.0594 259.93C16.0594 259.59 15.0594 259.22 14.1894 258.82L13.7394 258.6C12.9294 258.24 12.1694 257.84 11.4294 257.43L10.9394 257.16C10.154 256.7 9.39302 256.199 8.65939 255.66C8.49939 255.55 8.35938 255.43 8.20938 255.31C7.5762 254.829 6.96873 254.315 6.3894 253.77L6.12939 253.53C5.52666 252.936 4.96219 252.305 4.43939 251.64C4.30939 251.49 4.19938 251.33 4.07938 251.18C3.56715 250.506 3.09631 249.801 2.6694 249.07L7.55939 257.67C7.9863 258.401 8.45716 259.106 8.96939 259.78L9.32938 260.24C9.85217 260.905 10.4166 261.536 11.0194 262.13L11.2794 262.37C11.8494 262.91 12.4594 263.37 13.0994 263.92L13.5494 264.26C14.283 264.799 15.044 265.3 15.8294 265.76L16.3194 266.03C17.0594 266.45 17.8294 266.84 18.6294 267.21L19.0894 267.42C19.9994 267.82 20.9494 268.19 21.9494 268.53L22.6294 268.76C23.6294 269.07 24.6294 269.37 25.6294 269.63L25.8694 269.7C26.9694 269.97 28.1294 270.21 29.3194 270.42L30.1494 270.56C31.3594 270.76 32.5894 270.94 33.8794 271.08H34.1994C35.4094 271.2 36.6694 271.3 37.9494 271.37H38.8694C40.2027 271.43 41.6027 271.46 43.0694 271.46H43.8294C45.1294 271.46 46.4594 271.46 47.8294 271.36H48.7094C50.2394 271.28 51.8094 271.17 53.4094 271.03L54.4094 270.93C55.8994 270.79 57.4094 270.63 58.9494 270.44L59.6094 270.36C61.3094 270.14 63.0494 269.88 64.8194 269.59L66.0494 269.39C67.856 269.09 69.6994 268.757 71.5794 268.39H71.6394C73.3094 268.06 75.0194 267.69 76.7394 267.31L78.2194 266.98C79.6294 266.65 81.0694 266.31 82.5194 265.98L83.3594 265.78L83.7494 265.68L87.0694 264.81L88.4294 264.45C90.0094 264.02 91.5994 263.57 93.2194 263.1H93.4094C96.2494 262.267 99.1461 261.373 102.099 260.42L102.279 260.37L102.469 260.3C104.996 259.48 107.533 258.623 110.079 257.73L110.389 257.62C111.209 257.34 112.019 257.03 112.839 256.73C114.429 256.16 116.019 255.59 117.609 254.99L118.159 254.79C119.159 254.43 120.079 254.04 121.039 253.67L124.989 252.14L125.639 251.89C126.739 251.45 127.839 250.98 128.939 250.53L132.179 249.2L132.729 248.97L136.389 247.39L139.389 246.11L139.779 245.94C141.359 245.24 142.939 244.51 144.519 243.79L146.469 242.91L146.619 242.84C148.849 241.84 151.079 240.75 153.299 239.68L153.469 239.59L155.129 238.77C156.709 238 158.299 237.23 159.869 236.44L160.409 236.16L162.689 234.99C163.839 234.4 164.999 233.82 166.149 233.22C166.499 233.04 166.849 232.84 167.209 232.66L169.789 231.29L172.339 229.93C172.909 229.63 173.479 229.31 174.039 229L178.099 226.77C179.019 226.26 179.929 225.77 180.839 225.22L182.939 224.03L183.809 223.54C185.609 222.5 187.406 221.45 189.199 220.39L189.469 220.22C191.149 219.22 192.829 218.22 194.469 217.22L197.419 215.39L199.879 213.87L203.829 211.35L205.219 210.47L207.589 208.91C208.589 208.28 209.509 207.66 210.449 207.03L211.449 206.38C212.139 205.92 212.809 205.45 213.449 204.99C214.739 204.12 216.019 203.24 217.289 202.37L218.399 201.61L223.289 198.15L223.469 185.91Z" fill="url(#paint0_linear_12_244)"/>
<path d="M223.469 74C215.979 75.73 208.029 77.92 199.599 80.66C122.469 105.71 37.1894 164.3 9.04938 211.51C-19.0906 258.72 20.5894 276.7 97.6794 251.65C140.869 237.65 186.619 213.07 223.469 185.88V74Z" fill="url(#paint1_linear_12_244)"/>
<path d="M223.447 51.3518L221.757 53.8918L221.507 54.2818L219.927 56.7018L218.157 59.4818L217.947 59.8218L217.667 60.2718C217.247 60.9418 216.827 61.6018 216.417 62.2718L214.607 65.2718L214.477 65.4918L214.277 65.8318L212.777 68.3218L211.187 71.0418L211.067 71.2518L210.987 71.3818C210.207 72.7151 209.441 74.0485 208.687 75.3818C208.527 75.6518 208.387 75.9318 208.237 76.2018L207.307 77.8818C206.947 78.5518 206.567 79.2118 206.207 79.8818C206.077 80.1218 205.967 80.3618 205.837 80.5918C204.191 83.6585 202.601 86.7318 201.067 89.8118L200.327 91.3118C198.774 94.4118 197.331 97.4918 195.997 100.552C195.917 100.732 195.827 100.912 195.757 101.082C195.487 101.672 195.247 102.262 194.987 102.852C194.517 103.932 194.047 105.012 193.597 106.082C193.457 106.412 193.297 106.742 193.167 107.082C192.907 107.692 192.677 108.292 192.427 108.902C192.067 109.792 191.707 110.672 191.357 111.562C191.217 111.892 191.077 112.222 190.947 112.562L190.237 114.442C189.907 115.302 189.577 116.162 189.237 117.022C189.127 117.332 188.997 117.632 188.887 117.932C188.687 118.482 188.517 119.012 188.327 119.562C187.937 120.662 187.547 121.762 187.177 122.862L186.807 123.912C186.667 124.332 186.557 124.732 186.427 125.142C185.974 126.522 185.544 127.892 185.137 129.252C185.007 129.682 184.857 130.132 184.727 130.572C184.657 130.812 184.597 131.052 184.527 131.292C183.917 133.402 183.347 135.502 182.827 137.562V137.672C182.394 139.425 181.994 141.155 181.627 142.862C181.507 143.462 181.377 144.062 181.257 144.662C181.187 145.012 181.147 145.352 181.077 145.662C180.807 147.072 180.567 148.442 180.347 149.792C180.297 150.142 180.217 150.522 180.157 150.862C180.097 151.202 180.157 151.272 180.087 151.492C179.917 152.622 179.787 153.722 179.657 154.822C179.657 155.222 179.547 155.652 179.507 156.042V156.342C179.407 157.422 179.327 158.472 179.267 159.512C179.267 159.882 179.197 160.272 179.177 160.632C179.182 160.672 179.182 160.712 179.177 160.752C179.127 161.802 179.107 162.812 179.097 163.822C179.097 164.132 179.097 164.472 179.097 164.822C179.097 165.102 179.097 165.362 179.097 165.632C179.097 166.572 179.097 167.502 179.167 168.392C179.162 168.432 179.162 168.472 179.167 168.512C179.167 168.912 179.227 169.282 179.257 169.682C179.257 170.382 179.347 171.082 179.417 171.762V171.962C179.417 172.352 179.517 172.722 179.567 173.102C179.647 173.672 179.707 174.252 179.807 174.812L179.867 175.152L180.107 176.342C180.197 176.772 180.267 177.222 180.367 177.642C180.367 177.812 180.457 177.962 180.497 178.122C180.597 178.512 180.707 178.892 180.807 179.262C180.907 179.632 180.987 179.942 181.087 180.262C181.187 180.582 181.227 180.672 181.297 180.882C181.427 181.252 181.547 181.612 181.687 181.972C181.827 182.332 181.847 182.472 181.947 182.702C182.047 182.932 182.167 183.192 182.267 183.442C182.367 183.692 182.557 184.122 182.717 184.442C182.797 184.612 182.867 184.802 182.947 184.962C183.027 185.122 183.257 185.512 183.407 185.792C183.557 186.072 183.737 186.422 183.917 186.722C183.987 186.832 184.047 186.962 184.117 187.072C184.307 187.382 184.517 187.662 184.727 187.962C184.937 188.262 185.087 188.522 185.287 188.782C185.287 188.852 185.377 188.932 185.437 189.002C185.667 189.302 185.917 189.572 186.167 189.862C186.417 190.152 186.607 190.402 186.837 190.652L186.967 190.802C187.227 191.082 187.517 191.322 187.797 191.582C188.077 191.842 188.297 192.082 188.567 192.302L188.677 192.412C189.215 192.86 189.776 193.281 190.357 193.672L198.897 199.382C198.276 198.962 197.678 198.508 197.107 198.022C196.837 197.792 196.577 197.532 196.317 197.282C196.057 197.032 195.677 196.692 195.377 196.362C195.077 196.032 194.917 195.832 194.687 195.562C194.457 195.292 194.097 194.862 193.817 194.492C193.537 194.122 193.447 193.942 193.257 193.672C193.067 193.402 192.707 192.862 192.457 192.432C192.207 192.002 192.107 191.812 191.937 191.502C191.767 191.192 191.467 190.622 191.247 190.152C191.097 189.832 190.947 189.492 190.807 189.152C190.667 188.812 190.407 188.152 190.217 187.682C190.027 187.212 189.957 186.962 189.837 186.592C189.717 186.222 189.497 185.522 189.347 184.972C189.237 184.602 189.137 184.222 189.037 183.842C188.887 183.252 188.767 182.652 188.647 182.042C188.567 181.652 188.477 181.262 188.407 180.862C188.287 180.202 188.197 179.512 188.107 178.862C188.057 178.482 187.987 178.102 187.947 177.712C187.867 176.982 187.817 176.222 187.757 175.462C187.757 175.062 187.687 174.672 187.667 174.252C187.667 173.352 187.607 172.422 187.597 171.472C187.597 171.172 187.597 170.882 187.597 170.572C187.597 170.262 187.597 169.962 187.597 169.662C187.597 168.662 187.597 167.592 187.687 166.512C187.687 166.112 187.747 165.692 187.777 165.282C187.847 164.282 187.917 163.182 188.027 162.102C188.077 161.612 188.147 161.102 188.197 160.602C188.327 159.502 188.457 158.382 188.627 157.242C188.707 156.692 188.807 156.122 188.897 155.562C189.107 154.212 189.347 152.832 189.617 151.432C189.797 150.482 189.967 149.552 190.177 148.582C190.537 146.872 190.937 145.132 191.377 143.392C191.382 143.362 191.382 143.332 191.377 143.302C191.897 141.222 192.477 139.112 193.097 136.992C193.287 136.312 193.497 135.632 193.707 134.992C194.117 133.632 194.537 132.262 194.987 130.882L195.707 128.552C196.077 127.452 196.467 126.352 196.857 125.242C197.157 124.402 197.457 123.562 197.767 122.722C198.077 121.882 198.417 120.982 198.767 120.112C199.117 119.242 199.497 118.222 199.867 117.272L200.967 114.582C201.337 113.652 201.717 112.732 202.107 111.802C202.497 110.872 202.997 109.662 203.497 108.552C203.837 107.802 204.157 107.042 204.497 106.282C205.877 103.202 207.331 100.108 208.857 97.0018C209.097 96.5118 209.337 96.0018 209.587 95.5218C211.121 92.4418 212.714 89.3651 214.367 86.2918C214.847 85.3918 215.367 84.4918 215.817 83.6018L216.817 81.8918C217.737 80.2318 218.677 78.5651 219.637 76.8918L219.787 76.6418C220.774 74.9218 221.774 73.2085 222.787 71.5018L223.027 71.1018L223.457 70.4118L223.447 51.3518Z" fill="url(#paint2_linear_12_244)"/>
<path d="M223.447 243.602C222.447 244.262 221.447 244.932 220.447 245.602C219.447 246.272 218.577 246.802 217.647 247.382C216.397 248.162 215.147 248.912 213.907 249.652C213.017 250.182 212.127 250.712 211.247 251.212C209.987 251.932 208.747 252.602 207.507 253.212C206.677 253.662 205.847 254.122 205.027 254.532C203.727 255.212 202.437 255.822 201.157 256.432C200.447 256.772 199.717 257.142 199.017 257.432C197.437 258.152 195.887 258.802 194.347 259.432C193.967 259.592 193.577 259.772 193.197 259.922C191.297 260.675 189.434 261.342 187.607 261.922C187.077 262.092 186.607 262.222 186.057 262.382C184.757 262.782 183.467 263.172 182.207 263.502C181.537 263.682 180.897 263.812 180.207 263.962C179.127 264.212 178.047 264.462 176.997 264.652C176.307 264.782 175.627 264.872 174.997 264.982C173.997 265.132 172.997 265.272 172.087 265.372C171.407 265.442 170.737 265.492 170.087 265.542C169.177 265.602 168.267 265.652 167.377 265.672C166.717 265.672 166.067 265.672 165.377 265.672C164.507 265.672 163.657 265.612 162.817 265.542C162.197 265.542 161.577 265.442 160.967 265.372C160.137 265.272 159.327 265.132 158.517 264.982C157.947 264.872 157.377 264.772 156.817 264.642C155.997 264.452 155.217 264.222 154.427 263.982C153.927 263.822 153.427 263.682 152.917 263.512C152.077 263.212 151.277 262.852 150.467 262.512C150.077 262.332 149.667 262.182 149.277 261.982C148.113 261.386 146.988 260.718 145.907 259.982L154.447 265.692C155.527 266.415 156.652 267.067 157.817 267.642C158.197 267.842 158.607 267.992 159.007 268.172C159.807 268.532 160.607 268.892 161.457 269.172C161.947 269.352 162.457 269.482 162.967 269.642C163.747 269.882 164.537 270.122 165.347 270.312C165.907 270.442 166.487 270.532 167.057 270.642C167.857 270.792 168.667 270.932 169.497 271.032C170.107 271.102 170.727 271.152 171.357 271.202C172.197 271.272 173.047 271.312 173.907 271.332C174.557 271.332 175.207 271.332 175.907 271.332C176.797 271.332 177.697 271.262 178.617 271.202C179.287 271.202 179.957 271.102 180.617 271.032C181.567 270.932 182.547 270.792 183.527 270.642C184.207 270.542 184.877 270.442 185.577 270.312C186.577 270.122 187.707 269.872 188.787 269.622C189.437 269.472 190.087 269.342 190.787 269.162C192.047 268.842 193.337 268.442 194.627 268.042C195.147 267.882 195.627 267.752 196.177 267.582C198.004 266.982 199.871 266.315 201.777 265.582C202.147 265.432 202.527 265.252 202.907 265.102C204.447 264.482 206.007 263.822 207.587 263.102C208.297 262.782 209.017 262.412 209.727 262.102C211.017 261.492 212.297 260.882 213.607 260.212C214.417 259.792 215.257 259.332 216.077 258.882C217.317 258.222 218.557 257.552 219.817 256.882C220.697 256.382 221.597 255.882 222.487 255.322L223.487 254.722L223.447 243.602Z" fill="url(#paint3_linear_12_244)"/>
<path d="M223.447 192.262C190.097 207.262 171.887 188.382 181.587 142.892C187.587 114.622 203.277 81.5318 223.447 51.3718V0.0318298C179.717 55.8218 143.997 123.622 132.117 179.552C114.477 262.282 155.117 289.392 223.447 243.612V192.262Z" fill="url(#paint4_linear_12_244)"/>
<g style="mix-blend-mode:soft-light">
<path d="M215.979 248.425L223.447 237.052V228.002L206.489 253.828C209.582 252.197 212.746 250.397 215.979 248.425Z" fill="white" fill-opacity="0.4"/>
<path d="M166.512 265.773L212.175 196.214C209.86 196.762 207.647 197.107 205.542 197.254L160.785 265.43C162.626 265.662 164.536 265.777 166.512 265.773Z" fill="white" fill-opacity="0.4"/>
<path d="M193.593 195.506L149.768 262.257C148.264 261.533 146.831 260.697 145.471 259.752L189.293 193.004C190.611 194.012 192.046 194.847 193.593 195.506Z" fill="white" fill-opacity="0.4"/>
<path d="M182.286 183.72L137.541 251.878C136.5 250.432 135.54 248.876 134.663 247.211L180.312 177.677C180.826 179.869 181.486 181.884 182.286 183.72Z" fill="white" fill-opacity="0.4"/>
<path d="M179.178 159.444L130.022 234.318C129.504 232.058 129.082 229.681 128.761 227.188L180.539 148.319C179.863 152.251 179.412 155.961 179.178 159.444Z" fill="white" fill-opacity="0.4"/>
<path d="M190.944 112.502L128.16 208.135C128.329 204.802 128.626 201.333 129.055 197.728L205.238 81.6886C199.736 92.0098 194.911 102.374 190.944 112.502Z" fill="white" fill-opacity="0.4"/>
<path d="M159.805 101.924C176.546 66.9882 198.707 31.5663 223.447 0V4.98181L159.805 101.924Z" fill="white" fill-opacity="0.4"/>
<path d="M139.125 153.384C137.388 158.842 135.834 164.229 134.476 169.525L223.447 34.0018V24.9418L139.125 153.384Z" fill="white" fill-opacity="0.4"/>
<path d="M180.806 263.935L223.447 198.992V208.042L188.147 261.815C185.634 262.657 183.186 263.364 180.806 263.935Z" fill="white" fill-opacity="0.4"/>
</g>
<defs>
<linearGradient id="paint0_linear_12_244" x1="277.323" y1="-226.841" x2="-128.594" y2="-44.0593" gradientUnits="userSpaceOnUse">
<stop stop-color="#BBC4F2"/>
<stop offset="1" stop-color="#5A5ABD"/>
</linearGradient>
<linearGradient id="paint1_linear_12_244" x1="58.4794" y1="104.2" x2="204.829" y2="258.97" gradientUnits="userSpaceOnUse">
<stop stop-color="#BBC4F2"/>
<stop offset="1" stop-color="#5A5ABD"/>
</linearGradient>
<linearGradient id="paint2_linear_12_244" x1="181.771" y1="307.143" x2="171.813" y2="-125.707" gradientUnits="userSpaceOnUse">
<stop stop-color="#BBC4F2"/>
<stop offset="1" stop-color="#5A5ABD"/>
</linearGradient>
<linearGradient id="paint3_linear_12_244" x1="61.7202" y1="-3865.09" x2="1475.51" y2="-3080.16" gradientUnits="userSpaceOnUse">
<stop stop-color="#BBC4F2"/>
<stop offset="1" stop-color="#5A5ABD"/>
</linearGradient>
<linearGradient id="paint4_linear_12_244" x1="93.9073" y1="-63.2782" x2="240.687" y2="259.002" gradientUnits="userSpaceOnUse">
<stop stop-color="#BBC4F2"/>
<stop offset="1" stop-color="#5A5ABD"/>
</linearGradient>
</defs>
</svg>
