<svg xmlns="http://www.w3.org/2000/svg" xmlns:xlink="http://www.w3.org/1999/xlink" viewBox="0 0 203 301.48"><defs><style>.cls-1{isolation:isolate;}.cls-2{fill:url(#radial-gradient);}.cls-3{fill:url(#radial-gradient-2);}.cls-4{fill:url(#radial-gradient-3);}.cls-5{mix-blend-mode:overlay;opacity:0.4;}.cls-6{fill:#fff;}</style><radialGradient id="radial-gradient" cx="-1182.93" cy="318.41" r="180.38" gradientTransform="matrix(-1, 0, 0, 1, -1095.27, -251.24)" gradientUnits="userSpaceOnUse"><stop offset="0" stop-color="#6868fa"/><stop offset="0.99" stop-color="#4524cb"/></radialGradient><radialGradient id="radial-gradient-2" cx="-1075.72" cy="656.31" r="308.42" xlink:href="#radial-gradient"/><radialGradient id="radial-gradient-3" cx="-1421.73" cy="370.4" r="302.19" xlink:href="#radial-gradient"/></defs><g class="cls-1"><g id="Layer_1" data-name="Layer 1"><g class="cls-1"><polygon class="cls-2" points="0 61.51 0 207.38 36.7 167.76 0 61.51"/><polygon class="cls-3" points="36.7 167.76 0 207.38 0 292.11 94.41 301.48 203 184.26 36.7 167.76"/><polygon class="cls-4" points="144.29 14.31 0 0 0 61.51 36.7 167.76 203 184.26 144.29 14.31"/></g><g class="cls-5"><path class="cls-6" d="M203,435.5c-6.91-.92-13.83-1.71-20.74-2.56l-20.76-2.35c-13.84-1.54-27.7-2.9-41.55-4.36-13.86-1.3-27.72-2.68-41.6-3.89l-20.81-1.78c-6.95-.51-13.89-1.1-20.84-1.56,6.91.92,13.83,1.71,20.74,2.57l20.76,2.34c13.84,1.54,27.7,2.91,41.55,4.36,13.87,1.29,27.72,2.68,41.6,3.89l20.81,1.77C189.11,434.45,196.05,435,203,435.5Z" transform="translate(0 -251.24)"/></g><g class="cls-5"><path class="cls-6" d="M28.91,394.91,22,374,7.79,332.16Q3.87,321,0,309.91v5.76q2.93,8.58,5.85,17.16l14.64,41.65L28,395.24c2.56,6.9,5.06,13.82,7.68,20.7C33.46,408.91,31.15,401.92,28.91,394.91Z" transform="translate(0 -251.24)"/></g><g class="cls-5"><path class="cls-6" d="M21.1,435.11,7.87,449c-2.64,2.77-5.25,5.57-7.87,8.36v2.58c3-3.29,6-6.57,9-9.88l12.81-14.25c4.22-4.8,8.49-9.55,12.66-14.4C30,425.92,25.56,430.54,21.1,435.11Z" transform="translate(0 -251.24)"/></g></g></g></svg>