<svg xmlns="http://www.w3.org/2000/svg" xmlns:xlink="http://www.w3.org/1999/xlink" viewBox="0 0 118.88 168.55"><defs><style>.cls-1{isolation:isolate;}.cls-2{fill:url(#linear-gradient);}.cls-3{fill:url(#linear-gradient-2);}.cls-4{fill:url(#linear-gradient-3);}.cls-5,.cls-6{mix-blend-mode:overlay;}.cls-6{opacity:0.4;}.cls-7{fill:#fff;}</style><linearGradient id="linear-gradient" x1="23.11" y1="-55.16" x2="174.71" y2="116.49" gradientUnits="userSpaceOnUse"><stop offset="0" stop-color="#bbc4f2"/><stop offset="1" stop-color="#5a5abd"/></linearGradient><linearGradient id="linear-gradient-2" x1="52.06" y1="24.41" x2="67.3" y2="152.74" xlink:href="#linear-gradient"/><linearGradient id="linear-gradient-3" x1="4.56" y1="22.23" x2="209.1" y2="78.77" xlink:href="#linear-gradient"/></defs><g class="cls-1"><g id="Layer_1" data-name="Layer 1"><g class="cls-1"><polygon class="cls-2" points="118.89 8.17 90.89 44.01 118.89 98.39 118.89 8.17"/><polygon class="cls-3" points="118.89 98.39 90.89 44.01 0 74.8 48.26 168.55 118.89 144.62 118.89 98.39"/><polygon class="cls-4" points="118.89 0 36.67 27.85 0 74.8 90.89 44.01 118.89 8.17 118.89 0"/></g><g class="cls-5"><g class="cls-6"><path class="cls-7" d="M476.12,479.62c7.45-2.92,15-5.65,22.5-8.35s15.1-5.26,22.65-7.9,15.17-5.07,22.79-7.5,15.25-4.83,23-7c-7.46,2.92-15,5.65-22.5,8.36s-15.11,5.26-22.66,7.89-15.17,5.07-22.79,7.5S483.81,477.41,476.12,479.62Z" transform="translate(-476.12 -404.82)"/></g><g class="cls-6"><path class="cls-7" d="M595,501.33c-1-2-2-4-3.06-6-4.09-7.78-8.1-15.59-12.25-23.34s-8.33-15.48-12.68-23.12c3.68,8,7.55,15.88,11.44,23.76s7.93,15.68,11.88,23.53q2.35,4.45,4.67,8.93Z" transform="translate(-476.12 -404.82)"/></g><g class="cls-6"><path class="cls-7" d="M595,412c-.34.41-.69.82-1,1.24-3.18,3.82-6.22,7.74-9.34,11.6s-6.06,7.87-9,11.87-5.86,8-8.62,12.16c3.35-3.68,6.54-7.48,9.71-11.31s6.22-7.74,9.33-11.61,6-7.81,9-11.79Z" transform="translate(-476.12 -404.82)"/></g></g></g></g></svg>