<svg id="Layer_1" data-name="Layer 1" xmlns="http://www.w3.org/2000/svg" viewBox="0 0 206.13 266.7"><defs><style>.cls-1{fill:#fff;}</style></defs><path class="cls-1" d="M225.13,188.37c-5.45,12.62-3.58,14.35-11.16,14.52V170.23q5.11,5.4,10.17,10.88C225.5,182.58,226,186.43,225.13,188.37Z" transform="translate(-213.97 -107.1)"/><path class="cls-1" d="M275.59,130.58c.11,5.47-2.41,7.61-6.67,10.19-9,5.42-14.88,2.84-21.24-4.7-4.79-5.7-10-11-15.26-16.29h22.42c.73.78,1.44,1.56,2.16,2.34l1.75-1.14v-1.2h16.7C275.47,123.38,275.51,127,275.59,130.58Z" transform="translate(-213.97 -107.1)"/><path class="cls-1" d="M401.59,169.2v33.52l-1.76,0c-2.22-.06-4.41-2.77-6.52-4.38-.45-.35-.49-1.24-.74-1.86-5-12.68-5-12.69,4.39-22.44Z" transform="translate(-213.97 -107.1)"/><path class="cls-1" d="M281.74,335v4.43H265v-.1a42.65,42.65,0,0,0-.62-4.29c-1.38,1.49-2.74,3-4.09,4.39H237.65q11.34-11.94,23-23.56a7.66,7.66,0,0,1,7-1.25C283.34,321.68,281.72,317.17,281.74,335Z" transform="translate(-213.97 -107.1)"/><path class="cls-1" d="M401.59,256.27v33.22q-5.52-5.79-10.91-11.65c-1.38-1.5-1.87-5.12-1.22-7.24C393,258.87,393.81,256.67,401.59,256.27Z" transform="translate(-213.97 -107.1)"/><path class="cls-1" d="M377.08,339.41H354l-3-3.2c-.51.33-1,.65-1.57,1v2.23H333.07q.06-6.95.23-13.91c.07-2.44,2.46-5.92,4.66-7,12.89-6.46,13-6.26,23.22,4.44Q369.1,331.17,377.08,339.41Z" transform="translate(-213.97 -107.1)"/><path class="cls-1" d="M223.37,278.76q-4.71,4.86-9.4,9.74V256.09c4.14.09,6.83,1.58,8.06,6.07a34,34,0,0,0,3,7.55C227,273.37,226,276.05,223.37,278.76Z" transform="translate(-213.97 -107.1)"/><path class="cls-1" d="M376,120.41q-11,11.53-22.21,22.84a7,7,0,0,1-6.37,1.11c-16.43-7.45-14.11-2.52-14.26-20.19,0-1.26,0-2.5,0-3.76h16.28v1.31l1.81,1.23c.79-.84,1.57-1.69,2.35-2.54Z" transform="translate(-213.97 -107.1)"/><path class="cls-1" d="M401.59,221.43v15.95c-2.85-1.19-3.61-4.12-3.57-8.14S398.89,222.58,401.59,221.43Z" transform="translate(-213.97 -107.1)"/><path class="cls-1" d="M216.35,228.57c0,3.5,0,6.77-2.38,8.36V221.82C215.79,223.08,216.35,225.44,216.35,228.57Z" transform="translate(-213.97 -107.1)"/><path class="cls-1" d="M244,307.29c-10,10.31-20,20.7-30,31V314.05c6.05-6.32,12.17-12.59,18.2-18.95,3.94-4.13,7.09-2.94,10.56.68S248.39,302.79,244,307.29Z" transform="translate(-213.97 -107.1)"/><path class="cls-1" d="M315.44,330.89c0,2.85,0,5.68,0,8.52H299.11c0-2.84,0-5.69-.11-8.54-.17-6.5,3.64-7.22,8.58-7.33C312.68,323.43,315.48,325.15,315.44,330.89Z" transform="translate(-213.97 -107.1)"/><path class="cls-1" d="M401.59,315.15v24.26c-10.1-10.73-20.5-21.2-30.54-32-1.56-1.67-3.19-5.43-2.43-6.79,2-3.51,5.31-6.22,8.39-9.59a61.55,61.55,0,0,1,5.41,4.31C388.84,301.9,395.19,308.54,401.59,315.15Z" transform="translate(-213.97 -107.1)"/><path class="cls-1" d="M247.68,157c-3,3.19-5.22,6.74-8.38,8.57-1.57.9-5.53-.66-7.25-2.36-6.13-6.06-12.09-12.29-18.08-18.5V120.41c9.76,10.47,19.83,20.62,29.71,31A56.58,56.58,0,0,1,247.68,157Z" transform="translate(-213.97 -107.1)"/><path class="cls-1" d="M315.41,128.62c.06,6.39-4.06,6.32-8.51,6.4s-7.87-.78-7.87-6.44v-8.17h16.34C315.37,123.15,315.39,125.88,315.41,128.62Z" transform="translate(-213.97 -107.1)"/><path class="cls-1" d="M388.16,211.38c9.29,45-19.44,89.49-64.15,99.43a81.57,81.57,0,0,1-97.81-63.42A84.75,84.75,0,0,1,262.09,160l45.09,69.35L298,146.63c.15,0,.3,0,.46-.06h0A81.55,81.55,0,0,1,388.16,211.38Z" transform="translate(-213.97 -107.1)"/><path class="cls-1" d="M307.22,229.38l8.22-82.87Z" transform="translate(-213.97 -107.1)"/><path class="cls-1" d="M377.86,159l-2.89-2.6c-3.13-2.82-3.69-7.47-1.25-10.39l30.63-36.63c2.44-2.92,7-3,10.09-.18l2.89,2.6c3.13,2.81,3.69,7.47,1.25,10.39L388,158.77C385.51,161.69,381,161.78,377.86,159Z" transform="translate(-213.97 -107.1)"/><path class="cls-1" d="M226.42,373.41h-5.31L214,353.61h6.34l3.52,11.64,3.59-11.64h6.28Z" transform="translate(-213.97 -107.1)"/><path class="cls-1" d="M257.74,373.41V347.06h6.11v26.35Z" transform="translate(-213.97 -107.1)"/><path class="cls-1" d="M280.13,373.41V371a7.22,7.22,0,0,1-2.56,2.2,6.79,6.79,0,0,1-2.89.59,6.41,6.41,0,0,1-3.07-.73,7,7,0,0,1-2.36-2.07,10.57,10.57,0,0,1-1.53-3.24,17,17,0,0,1,0-8.49,10.31,10.31,0,0,1,1.53-3.25,7,7,0,0,1,2.36-2.05,6.35,6.35,0,0,1,3-.73,6.27,6.27,0,0,1,3,.64l2.13,1.14a0,0,0,0,0,.05,0v-7.92h6.11v26.35Zm-.33-13.35c-.16-.19-.35-.4-.58-.65a7.19,7.19,0,0,0-.77-.68,4.22,4.22,0,0,0-.9-.52,2.39,2.39,0,0,0-1-.21,2.55,2.55,0,0,0-1.5.42,2.93,2.93,0,0,0-.95,1.17,6.14,6.14,0,0,0-.49,1.78,15.26,15.26,0,0,0-.15,2.21,15.73,15.73,0,0,0,.13,2.11,5.82,5.82,0,0,0,.48,1.72,3,3,0,0,0,.93,1.17,2.41,2.41,0,0,0,1.48.44,2.78,2.78,0,0,0,1.69-.63,9.08,9.08,0,0,0,1.6-1.57Z" transform="translate(-213.97 -107.1)"/><path class="cls-1" d="M311.62,367.34a5.66,5.66,0,0,1-.74,3,5.86,5.86,0,0,1-1.92,2,8.77,8.77,0,0,1-2.76,1.14,14.12,14.12,0,0,1-3.19.36,14.73,14.73,0,0,1-4.35-.64,10.61,10.61,0,0,1-3.85-2.18l2.59-3.73a11.1,11.1,0,0,0,1.36.91,10.37,10.37,0,0,0,1.48.69,11.66,11.66,0,0,0,1.44.44,6.31,6.31,0,0,0,1.3.16,3.43,3.43,0,0,0,2-.42,1,1,0,0,0,.43-1.33,1,1,0,0,0-.34-.42,4.71,4.71,0,0,0-.75-.43c-.32-.15-.76-.32-1.31-.51l-2-.66a14.91,14.91,0,0,1-2.29-.94,6.54,6.54,0,0,1-1.68-1.24,4.83,4.83,0,0,1-1-1.69,7,7,0,0,1-.34-2.33,6.94,6.94,0,0,1,.34-2.08,5.08,5.08,0,0,1,1.28-2,7,7,0,0,1,2.53-1.53,11.36,11.36,0,0,1,4.05-.61,12.88,12.88,0,0,1,4,.62,12.69,12.69,0,0,1,3.6,1.89l-2.59,3.73h0a11.51,11.51,0,0,0-2.51-1.38,6.55,6.55,0,0,0-2.44-.51,2.86,2.86,0,0,0-1.69.37,1,1,0,0,0-.47.82,1,1,0,0,0,.42.89,6.84,6.84,0,0,0,1.48.68l2,.66a21.68,21.68,0,0,1,2.6,1,6.69,6.69,0,0,1,1.86,1.27,4.77,4.77,0,0,1,1.13,1.71A6.28,6.28,0,0,1,311.62,367.34Z" transform="translate(-213.97 -107.1)"/><path class="cls-1" d="M324.5,373.69a13.67,13.67,0,0,1-1.59.1,12.76,12.76,0,0,1-3.55-.4,4.53,4.53,0,0,1-2.13-1.22,4.36,4.36,0,0,1-1.05-2.05,13.21,13.21,0,0,1-.28-2.92v-8.12H313v-4.53h2.89v-4.36l6.11-2.65v7h4v4.53h-4v8a2,2,0,0,0,.45,1.31A1.86,1.86,0,0,0,324,369a5.58,5.58,0,0,0,.93-.09l1.1-.19v4.77A12.24,12.24,0,0,1,324.5,373.69Z" transform="translate(-213.97 -107.1)"/><path class="cls-1" d="M341,373.41v-2.13a17.06,17.06,0,0,1-2.94,1.78,7.84,7.84,0,0,1-3.41.73,5.2,5.2,0,0,1-4.23-1.67,6.55,6.55,0,0,1-1.41-4.36V353.61h6.11v11.78a7.56,7.56,0,0,0,.31,2.51,1.43,1.43,0,0,0,1.52.84,3.85,3.85,0,0,0,1.91-.61,10.81,10.81,0,0,0,1.81-1.31V353.61h6.11v19.8Z" transform="translate(-213.97 -107.1)"/><path class="cls-1" d="M363,373.41V371a7.14,7.14,0,0,1-2.56,2.2,6.79,6.79,0,0,1-2.89.59,6.41,6.41,0,0,1-3.07-.73,7,7,0,0,1-2.36-2.07,10.57,10.57,0,0,1-1.53-3.24,17,17,0,0,1,0-8.49,10.31,10.31,0,0,1,1.53-3.25,7,7,0,0,1,2.36-2.05,6.35,6.35,0,0,1,3-.73,6.27,6.27,0,0,1,3,.64l2.13,1.14a0,0,0,0,0,.05,0v-7.92h6.11v26.35Zm-.33-13.35c-.16-.19-.35-.4-.58-.65a7.19,7.19,0,0,0-.77-.68,4.15,4.15,0,0,0-.89-.52,2.47,2.47,0,0,0-1-.21,2.55,2.55,0,0,0-1.5.42,2.93,2.93,0,0,0-.95,1.17,6.47,6.47,0,0,0-.49,1.78,15.26,15.26,0,0,0-.15,2.21,15.73,15.73,0,0,0,.13,2.11,5.82,5.82,0,0,0,.48,1.72,3,3,0,0,0,.93,1.17,2.41,2.41,0,0,0,1.48.44,2.78,2.78,0,0,0,1.69-.63,9.08,9.08,0,0,0,1.6-1.57Z" transform="translate(-213.97 -107.1)"/><path class="cls-1" d="M372.76,351.66v-4.6h6.12v4.6Zm0,21.75v-19.8h6.12v19.8Z" transform="translate(-213.97 -107.1)"/><path class="cls-1" d="M401.59,363.51a12.46,12.46,0,0,1-.69,4.27,9.11,9.11,0,0,1-2,3.22,8.79,8.79,0,0,1-3.06,2.06,11.13,11.13,0,0,1-7.93,0,8.82,8.82,0,0,1-3.06-2.07,9.48,9.48,0,0,1-2-3.24,13.37,13.37,0,0,1,0-8.48,9.48,9.48,0,0,1,2-3.24,8.82,8.82,0,0,1,3.06-2.07,11.13,11.13,0,0,1,7.93,0,8.82,8.82,0,0,1,3.06,2.07,9.48,9.48,0,0,1,2,3.24A12.36,12.36,0,0,1,401.59,363.51Zm-6.31,0a7.18,7.18,0,0,0-1-4.25,2.84,2.84,0,0,0-4.81,0,9.71,9.71,0,0,0,0,8.5,2.85,2.85,0,0,0,4.83,0A7.4,7.4,0,0,0,395.28,363.51Z" transform="translate(-213.97 -107.1)"/><path class="cls-1" d="M254.44,360.25a11,11,0,0,1-7.93,12.9,10.09,10.09,0,0,1-12.09-8.23,11.24,11.24,0,0,1,4.44-11.33l5.57,9-1.13-10.74h0A10.14,10.14,0,0,1,254.44,360.25Z" transform="translate(-213.97 -107.1)"/></svg>
