<svg id="Layer_1" data-name="Layer 1" xmlns="http://www.w3.org/2000/svg" xmlns:xlink="http://www.w3.org/1999/xlink" viewBox="0 0 275.69 119.13"><defs><style>.cls-1{fill:url(#linear-gradient);}.cls-2{fill:url(#linear-gradient-2);}</style><linearGradient id="linear-gradient" x1="136.1" y1="925.76" x2="515.28" y2="925.76" gradientTransform="translate(329.55 -489.73) rotate(18.58)" gradientUnits="userSpaceOnUse"><stop offset="0" stop-color="#8067c6"/><stop offset="0.42" stop-color="#aecfff"/><stop offset="1" stop-color="#6129a4"/></linearGradient><linearGradient id="linear-gradient-2" x1="136.1" y1="915.43" x2="515.28" y2="915.43" gradientTransform="translate(329.55 -489.73) rotate(18.58)" gradientUnits="userSpaceOnUse"><stop offset="0" stop-color="#d4e5ff"/><stop offset="1" stop-color="#7734c8"/></linearGradient></defs><path class="cls-1" d="M427.65,509.08l-6.59,19.58c-3.87,11.53-67.17.65-141.39-24.31s-131.21-54.52-127.34-66l6.59-19.59c3.87-11.51,67.16-.63,141.36,24.32S431.52,497.57,427.65,509.08Z" transform="translate(-152.15 -414.13)"/><path class="cls-2" d="M427.65,509.08c-1.19,3.52-8,4.95-19,4.51-24.82-1-71-11.53-122.4-28.83s-94.57-36.79-114.94-51c-9-6.3-13.59-11.54-12.4-15.07,3.87-11.51,67.16-.63,141.36,24.32S431.52,497.57,427.65,509.08Z" transform="translate(-152.15 -414.13)"/></svg>