<svg width="96" height="272" viewBox="0 0 96 272" fill="none" xmlns="http://www.w3.org/2000/svg">
<path d="M0.0400162 51.3518L1.73002 53.8918L1.98002 54.2818L3.56002 56.7018L5.33002 59.4818L5.54002 59.8218L5.82001 60.2718C6.24001 60.9418 6.66001 61.6018 7.07001 62.2718L8.88002 65.2718L9.01002 65.4918L9.21002 65.8318L10.71 68.3218L12.3 71.0418L12.42 71.2518L12.5 71.3818C13.28 72.7151 14.0467 74.0485 14.8 75.3818C14.96 75.6518 15.1 75.9318 15.25 76.2018L16.18 77.8818C16.54 78.5518 16.92 79.2118 17.28 79.8818C17.41 80.1218 17.52 80.3618 17.65 80.5918C19.2967 83.6585 20.8867 86.7318 22.42 89.8118L23.16 91.3118C24.7133 94.4118 26.1567 97.4918 27.49 100.552C27.57 100.732 27.66 100.912 27.73 101.082C28 101.672 28.24 102.262 28.5 102.852C28.97 103.932 29.44 105.012 29.89 106.082C30.03 106.412 30.19 106.742 30.32 107.082C30.58 107.692 30.81 108.292 31.06 108.902C31.42 109.792 31.78 110.672 32.13 111.562C32.27 111.892 32.41 112.222 32.54 112.562L33.25 114.442C33.58 115.302 33.91 116.162 34.25 117.022C34.36 117.332 34.49 117.632 34.6 117.932C34.8 118.482 34.97 119.012 35.16 119.562C35.55 120.662 35.94 121.762 36.31 122.862L36.68 123.912C36.82 124.332 36.93 124.732 37.06 125.142C37.5134 126.522 37.9434 127.892 38.35 129.252C38.48 129.682 38.63 130.132 38.76 130.572C38.83 130.812 38.89 131.052 38.96 131.292C39.57 133.402 40.14 135.502 40.66 137.562V137.672C41.0933 139.425 41.4934 141.155 41.86 142.862C41.98 143.462 42.11 144.062 42.23 144.662C42.3 145.012 42.34 145.352 42.41 145.662C42.68 147.072 42.92 148.442 43.14 149.792C43.19 150.142 43.27 150.522 43.33 150.862C43.39 151.202 43.33 151.272 43.4 151.492C43.57 152.622 43.7 153.722 43.83 154.822C43.83 155.222 43.94 155.652 43.98 156.042V156.342C44.08 157.422 44.16 158.472 44.22 159.512C44.22 159.882 44.29 160.272 44.31 160.632C44.3051 160.672 44.3051 160.712 44.31 160.752C44.36 161.802 44.38 162.812 44.39 163.822C44.39 164.132 44.39 164.472 44.39 164.822C44.39 165.102 44.39 165.362 44.39 165.632C44.39 166.572 44.39 167.502 44.32 168.392C44.3249 168.432 44.3249 168.472 44.32 168.512C44.32 168.912 44.26 169.282 44.23 169.682C44.23 170.382 44.14 171.082 44.07 171.762V171.962C44.07 172.352 43.97 172.722 43.92 173.102C43.84 173.672 43.78 174.252 43.68 174.812L43.62 175.152L43.38 176.342C43.29 176.772 43.22 177.222 43.12 177.642C43.12 177.812 43.03 177.962 42.99 178.122C42.89 178.512 42.78 178.892 42.68 179.262C42.58 179.632 42.5 179.942 42.4 180.262C42.3 180.582 42.26 180.672 42.19 180.882C42.06 181.252 41.94 181.612 41.8 181.972C41.66 182.332 41.64 182.472 41.54 182.702C41.44 182.932 41.32 183.192 41.22 183.442C41.12 183.692 40.93 184.122 40.77 184.442C40.69 184.612 40.62 184.802 40.54 184.962C40.46 185.122 40.23 185.512 40.08 185.792C39.93 186.072 39.75 186.422 39.57 186.722C39.5 186.832 39.44 186.962 39.37 187.072C39.18 187.382 38.97 187.662 38.76 187.962C38.55 188.262 38.4 188.522 38.2 188.782C38.2 188.852 38.11 188.932 38.05 189.002C37.82 189.302 37.57 189.572 37.32 189.862C37.07 190.152 36.88 190.402 36.65 190.652L36.52 190.802C36.26 191.082 35.97 191.322 35.69 191.582C35.41 191.842 35.19 192.082 34.92 192.302L34.81 192.412C34.272 192.86 33.7112 193.281 33.13 193.672L24.59 199.382C25.2116 198.962 25.8093 198.508 26.38 198.022C26.65 197.792 26.91 197.532 27.17 197.282C27.43 197.032 27.81 196.692 28.11 196.362C28.41 196.032 28.57 195.832 28.8 195.562C29.03 195.292 29.39 194.862 29.67 194.492C29.95 194.122 30.04 193.942 30.23 193.672C30.42 193.402 30.78 192.862 31.03 192.432C31.28 192.002 31.38 191.812 31.55 191.502C31.72 191.192 32.02 190.622 32.24 190.152C32.39 189.832 32.54 189.492 32.68 189.152C32.82 188.812 33.08 188.152 33.27 187.682C33.46 187.212 33.53 186.962 33.65 186.592C33.77 186.222 33.99 185.522 34.14 184.972C34.25 184.602 34.35 184.222 34.45 183.842C34.6 183.252 34.72 182.652 34.84 182.042C34.92 181.652 35.01 181.262 35.08 180.862C35.2 180.202 35.29 179.512 35.38 178.862C35.43 178.482 35.5 178.102 35.54 177.712C35.62 176.982 35.67 176.222 35.73 175.462C35.73 175.062 35.8 174.672 35.82 174.252C35.82 173.352 35.88 172.422 35.89 171.472C35.89 171.172 35.89 170.882 35.89 170.572C35.89 170.262 35.89 169.962 35.89 169.662C35.89 168.662 35.89 167.592 35.8 166.512C35.8 166.112 35.74 165.692 35.71 165.282C35.64 164.282 35.57 163.182 35.46 162.102C35.41 161.612 35.34 161.102 35.29 160.602C35.16 159.502 35.03 158.382 34.86 157.242C34.78 156.692 34.68 156.122 34.59 155.562C34.38 154.212 34.14 152.832 33.87 151.432C33.69 150.482 33.52 149.552 33.31 148.582C32.95 146.872 32.55 145.132 32.11 143.392C32.1053 143.362 32.1053 143.332 32.11 143.302C31.59 141.222 31.01 139.112 30.39 136.992C30.2 136.312 29.99 135.632 29.78 134.992C29.37 133.632 28.95 132.262 28.5 130.882L27.78 128.552C27.41 127.452 27.02 126.352 26.63 125.242C26.33 124.402 26.03 123.562 25.72 122.722C25.41 121.882 25.07 120.982 24.72 120.112C24.37 119.242 23.99 118.222 23.62 117.272L22.52 114.582C22.15 113.652 21.77 112.732 21.38 111.802C20.99 110.872 20.49 109.662 19.99 108.552C19.65 107.802 19.33 107.042 18.99 106.282C17.61 103.202 16.1567 100.108 14.63 97.0018C14.39 96.5118 14.15 96.0018 13.9 95.5218C12.3667 92.4418 10.7734 89.3651 9.12002 86.2918C8.64001 85.3918 8.12002 84.4918 7.67002 83.6018L6.67002 81.8918C5.75002 80.2318 4.81002 78.5651 3.85002 76.8918L3.70002 76.6418C2.71336 74.9218 1.71336 73.2085 0.70002 71.5018L0.460014 71.1018L0.0300217 70.4118L0.0400162 51.3518Z" fill="url(#paint0_linear_24_31)"/>
<path d="M0.0400162 243.602C1.04002 244.262 2.04002 244.932 3.04002 245.602C4.04002 246.272 4.91002 246.802 5.84002 247.382C7.09002 248.162 8.34002 248.912 9.58002 249.652C10.47 250.182 11.36 250.712 12.24 251.212C13.5 251.932 14.74 252.602 15.98 253.212C16.81 253.662 17.64 254.122 18.46 254.532C19.76 255.212 21.05 255.822 22.33 256.432C23.04 256.772 23.77 257.142 24.47 257.432C26.05 258.152 27.6 258.802 29.14 259.432C29.52 259.592 29.91 259.772 30.29 259.922C32.19 260.675 34.0534 261.342 35.88 261.922C36.41 262.092 36.88 262.222 37.43 262.382C38.73 262.782 40.02 263.172 41.28 263.502C41.95 263.682 42.59 263.812 43.28 263.962C44.36 264.212 45.44 264.462 46.49 264.652C47.18 264.782 47.86 264.872 48.49 264.982C49.49 265.132 50.49 265.272 51.4 265.372C52.08 265.442 52.75 265.492 53.4 265.542C54.31 265.602 55.22 265.652 56.11 265.672C56.77 265.672 57.42 265.672 58.11 265.672C58.98 265.672 59.83 265.612 60.67 265.542C61.29 265.542 61.91 265.442 62.52 265.372C63.35 265.272 64.16 265.132 64.97 264.982C65.54 264.872 66.11 264.772 66.67 264.642C67.49 264.452 68.27 264.222 69.06 263.982C69.56 263.822 70.06 263.682 70.57 263.512C71.41 263.212 72.21 262.852 73.02 262.512C73.41 262.332 73.82 262.182 74.21 261.982C75.3739 261.386 76.4995 260.718 77.58 259.982L69.04 265.692C67.9608 266.415 66.835 267.067 65.67 267.642C65.29 267.842 64.88 267.992 64.48 268.172C63.68 268.532 62.88 268.892 62.03 269.172C61.54 269.352 61.03 269.482 60.52 269.642C59.74 269.882 58.95 270.122 58.14 270.312C57.58 270.442 57 270.532 56.43 270.642C55.63 270.792 54.82 270.932 53.99 271.032C53.38 271.102 52.76 271.152 52.13 271.202C51.29 271.272 50.44 271.312 49.58 271.332C48.93 271.332 48.28 271.332 47.58 271.332C46.69 271.332 45.79 271.262 44.87 271.202C44.2 271.202 43.53 271.102 42.87 271.032C41.92 270.932 40.94 270.792 39.96 270.642C39.28 270.542 38.61 270.442 37.91 270.312C36.91 270.122 35.78 269.872 34.7 269.622C34.05 269.472 33.4 269.342 32.7 269.162C31.44 268.842 30.15 268.442 28.86 268.042C28.34 267.882 27.86 267.752 27.31 267.582C25.4834 266.982 23.6167 266.315 21.71 265.582C21.34 265.432 20.96 265.252 20.58 265.102C19.04 264.482 17.48 263.822 15.9 263.102C15.19 262.782 14.47 262.412 13.76 262.102C12.47 261.492 11.19 260.882 9.88002 260.212C9.07002 259.792 8.23002 259.332 7.41002 258.882C6.17002 258.222 4.93002 257.552 3.67002 256.882C2.79002 256.382 1.89002 255.882 1.00002 255.322L2.28882e-05 254.722L0.0400162 243.602Z" fill="url(#paint1_linear_24_31)"/>
<path d="M0.0400009 192.262C33.39 207.262 51.6 188.382 41.9 142.892C35.9 114.622 20.21 81.5318 0.0400009 51.3718V0.0318298C43.77 55.8218 79.49 123.622 91.37 179.552C109.01 262.282 68.37 289.392 0.0400009 243.612V192.262Z" fill="url(#paint2_linear_24_31)"/>
<g style="mix-blend-mode:soft-light">
<path d="M7.50799 248.425L0.0400009 237.052V228.002L16.9979 253.828C13.9057 252.197 10.7412 250.397 7.50799 248.425Z" fill="white" fill-opacity="0.4"/>
<path d="M56.9753 265.773L11.3126 196.214C13.6277 196.762 15.8405 197.107 17.9448 197.254L62.7026 265.43C60.8616 265.662 58.9517 265.777 56.9753 265.773Z" fill="white" fill-opacity="0.4"/>
<path d="M29.8946 195.506L73.7189 262.257C75.2232 261.533 76.6563 260.697 78.016 259.752L34.1939 193.004C32.8762 194.012 31.4413 194.847 29.8946 195.506Z" fill="white" fill-opacity="0.4"/>
<path d="M41.2008 183.72L85.9465 251.878C86.9869 250.432 87.9469 248.876 88.824 247.211L43.1753 177.677C42.6611 179.869 42.0009 181.884 41.2008 183.72Z" fill="white" fill-opacity="0.4"/>
<path d="M44.3096 159.444L93.4654 234.318C93.9837 232.058 94.4048 229.681 94.7262 227.188L42.9479 148.319C43.6243 152.251 44.075 155.961 44.3096 159.444Z" fill="white" fill-opacity="0.4"/>
<path d="M32.5434 112.502L95.3268 208.135C95.1587 204.802 94.8616 201.333 94.4319 197.728L18.2497 81.6886C23.7511 92.0098 28.5767 102.374 32.5434 112.502Z" fill="white" fill-opacity="0.4"/>
<path d="M63.682 101.924C46.941 66.9882 24.7807 31.5663 0.0400009 0V4.98181L63.682 101.924Z" fill="white" fill-opacity="0.4"/>
<path d="M84.3626 153.384C86.0992 158.842 87.6529 164.229 89.0113 169.525L0.0400009 34.0018V24.9418L84.3626 153.384Z" fill="white" fill-opacity="0.4"/>
<path d="M42.6813 263.935L0.0400009 198.992V208.042L35.3401 261.815C37.8533 262.657 40.3013 263.364 42.6813 263.935Z" fill="white" fill-opacity="0.4"/>
</g>
<defs>
<linearGradient id="paint0_linear_24_31" x1="41.7165" y1="307.143" x2="51.6741" y2="-125.707" gradientUnits="userSpaceOnUse">
<stop stop-color="#BBC4F2"/>
<stop offset="1" stop-color="#5A5ABD"/>
</linearGradient>
<linearGradient id="paint1_linear_24_31" x1="161.767" y1="-3865.09" x2="-1252.03" y2="-3080.16" gradientUnits="userSpaceOnUse">
<stop stop-color="#BBC4F2"/>
<stop offset="1" stop-color="#5A5ABD"/>
</linearGradient>
<linearGradient id="paint2_linear_24_31" x1="129.58" y1="-63.2782" x2="-17.2" y2="259.002" gradientUnits="userSpaceOnUse">
<stop stop-color="#BBC4F2"/>
<stop offset="1" stop-color="#5A5ABD"/>
</linearGradient>
</defs>
</svg>
